<?xml version="1.0" standalone="no"?>
<!DOCTYPE svg PUBLIC "-//W3C//DTD SVG 20010904//EN"
 "http://www.w3.org/TR/2001/REC-SVG-20010904/DTD/svg10.dtd">
<svg version="1.0" xmlns="http://www.w3.org/2000/svg"
 width="1852.000000pt" height="406.000000pt" viewBox="0 0 1852.000000 406.000000"
 preserveAspectRatio="xMidYMid meet">

<g transform="translate(0.000000,406.000000) scale(0.100000,-0.100000)"
fill="#000000" stroke="none">
<path d="M1395 4043 c-114 -16 -217 -60 -344 -147 -42 -28 -145 -94 -229 -146
-194 -120 -255 -170 -335 -273 -144 -185 -203 -308 -287 -597 -156 -537 -177
-634 -187 -840 -8 -176 12 -298 97 -583 74 -251 119 -368 168 -440 39 -55 232
-239 362 -342 122 -97 181 -125 371 -174 87 -22 207 -62 270 -89 63 -27 166
-72 229 -99 63 -28 201 -78 305 -112 105 -34 255 -85 335 -112 174 -59 257
-79 329 -79 121 0 187 46 221 156 26 86 25 98 -7 133 -41 44 -331 171 -578
253 -202 67 -388 147 -430 185 -11 10 -36 39 -54 65 -19 26 -59 65 -91 87 -32
22 -72 57 -89 76 -73 83 -134 265 -116 346 l7 31 68 -4 c65 -3 71 -6 117 -49
59 -55 155 -114 228 -140 104 -36 135 -21 135 67 0 30 7 68 16 85 19 39 12 62
-38 110 -23 22 -39 42 -36 44 3 3 20 -1 39 -9 50 -20 122 -28 153 -17 14 6 32
22 38 37 12 25 9 29 -54 88 -36 33 -79 78 -94 100 -28 39 -28 39 -5 31 13 -4
52 -20 85 -36 75 -36 146 -39 176 -9 11 11 20 26 20 33 0 29 -42 76 -96 107
-79 44 -187 153 -204 205 -14 44 -43 82 -72 91 -27 8 -22 21 14 40 24 12 72
19 168 24 119 6 141 10 187 33 l52 27 78 -33 c43 -19 119 -44 168 -56 130 -32
233 -87 405 -217 84 -64 167 -125 184 -135 32 -20 81 -25 90 -10 3 4 -15 68
-39 142 -25 73 -45 137 -45 142 0 19 103 -3 175 -37 40 -20 126 -75 191 -122
163 -119 203 -144 236 -144 21 0 29 6 34 24 14 56 -30 128 -157 261 l-80 83
193 5 c315 8 487 35 598 92 31 16 32 19 28 66 -3 29 -1 53 6 58 6 5 46 18 89
30 135 37 202 84 195 140 -4 39 -45 52 -194 65 -162 14 -191 30 -72 39 144 11
270 54 309 107 10 14 22 39 25 57 5 27 3 33 -22 46 -53 27 -156 43 -494 78
-133 14 -277 50 -475 121 -209 74 -243 95 -605 377 -386 300 -383 298 -610
386 -75 30 -215 94 -311 143 -132 67 -193 92 -254 105 -137 29 -387 44 -490
30z m220 -63 c145 -10 270 -30 365 -57 128 -36 220 -94 220 -138 0 -13 -25
-61 -56 -106 -69 -101 -88 -142 -114 -251 -82 -347 -62 -604 80 -1008 56 -158
60 -184 29 -201 -12 -6 -87 -15 -168 -19 -131 -7 -154 -11 -225 -40 -103 -42
-117 -37 -266 83 -166 133 -296 293 -408 497 -176 324 -222 705 -113 944 77
169 232 274 434 296 40 4 74 8 77 9 3 0 68 -4 145 -9z m873 -270 c109 -42 256
-140 493 -331 291 -234 312 -250 448 -327 230 -132 359 -172 731 -222 246 -34
367 -59 409 -86 l24 -17 -26 -13 c-74 -39 -276 -64 -527 -64 -169 0 -194 -4
-180 -30 23 -43 150 -75 454 -115 104 -13 194 -29 199 -34 12 -12 -41 -46 -93
-61 -138 -40 -342 -50 -555 -25 -160 18 -188 19 -183 3 15 -43 103 -71 298
-93 177 -20 260 -35 260 -47 0 -26 -139 -56 -384 -83 -113 -13 -166 -13 -288
-5 -164 12 -174 15 -276 87 -35 25 -69 42 -78 39 -31 -12 -13 -43 54 -91 126
-92 398 -373 379 -392 -4 -3 -59 37 -124 89 -182 147 -222 167 -423 209 -93
20 -113 28 -170 70 -77 56 -113 74 -134 66 -29 -11 -16 -35 37 -68 65 -42 160
-131 199 -186 40 -59 79 -173 59 -173 -6 0 -36 24 -68 53 -220 202 -368 283
-614 337 -121 26 -156 50 -201 136 -43 83 -109 283 -138 419 -83 392 23 891
205 971 52 23 128 17 213 -16z m-1596 -41 c-2 -13 -14 -79 -28 -145 -63 -314
0 -559 244 -949 73 -118 98 -147 266 -315 102 -102 186 -188 186 -192 0 -4
-22 -19 -50 -33 -72 -37 -118 -81 -130 -126 -25 -92 -121 -83 -354 33 -235
117 -411 243 -561 400 -104 108 -149 174 -193 280 -22 53 -26 78 -26 158 0 80
6 110 32 187 112 328 361 648 560 719 47 17 58 13 54 -17z m-612 -1170 c76
-131 171 -241 304 -349 189 -154 252 -193 425 -261 170 -67 267 -114 274 -133
3 -7 -9 -44 -26 -82 -24 -54 -31 -87 -35 -154 -5 -100 -19 -131 -67 -154 -79
-38 -170 -48 -370 -43 -203 6 -297 21 -428 71 -225 85 -290 213 -290 571 0
178 26 371 69 505 47 151 71 156 144 29z m1490 -429 c-8 -5 -31 -10 -50 -10
-26 0 -31 3 -20 10 8 5 31 10 50 10 26 0 31 -3 20 -10z m71 -110 c42 -80 85
-128 172 -193 39 -30 81 -64 91 -76 19 -21 19 -21 0 -21 -30 1 -124 42 -179
79 -70 48 -104 80 -125 122 -11 20 -27 40 -37 44 -10 3 -67 9 -128 12 -60 3
-118 10 -128 15 -46 24 39 60 142 60 42 0 92 5 111 12 19 7 38 11 42 9 4 -2
21 -30 39 -63z m-273 -90 c62 -6 126 -17 141 -24 31 -17 64 -63 111 -157 20
-38 61 -93 103 -136 l70 -73 -37 0 c-81 0 -155 51 -252 176 -96 123 -98 124
-215 124 -64 0 -99 4 -99 11 0 22 44 89 59 89 3 0 57 -5 119 -10z m1 -165 c30
-15 68 -66 124 -165 14 -25 52 -79 85 -120 101 -128 105 -152 16 -106 -90 47
-149 108 -190 194 -51 108 -45 105 -120 76 -69 -26 -117 -30 -159 -14 -36 14
-40 34 -15 82 41 79 44 81 142 75 49 -3 100 -12 117 -22z m-19 -228 c35 -63
148 -175 205 -205 43 -22 85 -57 85 -71 0 -15 -28 -20 -60 -11 -55 16 -121 60
-201 137 -77 74 -79 75 -119 68 -22 -4 -72 -1 -111 5 l-71 12 6 30 c3 17 6 42
6 55 0 25 1 25 63 19 34 -3 78 -2 97 3 63 16 68 14 100 -42z m-1185 -133 c182
-64 270 -83 420 -90 165 -8 261 6 378 53 87 35 90 36 104 17 11 -14 13 -35 9
-77 -4 -43 -1 -69 14 -107 26 -66 25 -82 -6 -120 -109 -129 -620 -214 -783
-130 -115 58 -268 283 -296 433 -7 35 5 67 24 67 4 0 65 -21 136 -46z m1024
-398 c15 -34 34 -53 91 -91 83 -55 123 -105 140 -175 20 -82 -12 -143 -89
-169 -83 -27 -429 8 -584 59 -173 58 -327 155 -327 205 0 18 13 21 165 34 217
20 393 71 488 142 69 52 92 51 116 -5z m521 -367 c495 -180 740 -297 740 -354
0 -23 -24 -28 -67 -15 -21 7 -128 52 -238 101 -188 82 -369 153 -495 194 -80
26 -148 62 -160 85 -12 23 -5 60 13 60 6 0 99 -32 207 -71z m-105 -150 c71
-23 166 -56 210 -74 44 -18 141 -54 215 -80 145 -51 260 -105 328 -154 46 -34
52 -46 24 -53 -71 -19 -569 110 -901 234 -147 55 -271 113 -271 127 0 9 37 23
85 34 11 3 56 5 100 6 67 1 99 -5 210 -40z"/>
<path d="M1820 3241 c0 -29 -19 -38 -101 -50 -170 -23 -498 -178 -569 -268
-21 -26 -27 -73 -10 -73 5 0 42 27 81 60 146 123 352 213 547 240 42 6 79 14
83 18 4 4 9 26 12 50 5 39 4 42 -19 42 -17 0 -24 -6 -24 -19z"/>
<path d="M951 2686 c-9 -10 -8 -20 5 -42 16 -28 16 -30 -21 -93 -94 -160 -148
-316 -116 -336 22 -13 39 15 71 113 36 109 58 156 101 215 33 45 38 99 13 135
-17 25 -36 28 -53 8z"/>
<path d="M637 1941 c-5 -21 5 -33 35 -44 18 -6 23 -33 33 -173 11 -145 43
-239 74 -220 16 10 13 70 -9 166 -11 47 -20 108 -20 136 0 104 -16 133 -81
149 -21 5 -27 2 -32 -14z"/>
<path d="M867 1181 c-5 -20 50 -140 80 -173 20 -22 53 -23 53 -2 0 9 -15 41
-33 72 -18 32 -40 70 -48 87 -18 36 -44 44 -52 16z"/>
<path d="M1185 790 c-18 -28 34 -73 165 -145 33 -18 60 -41 68 -58 18 -37 56
-34 60 3 4 33 -22 57 -113 106 -38 21 -87 53 -108 71 -38 34 -61 41 -72 23z"/>
<path d="M9333 3992 c-7 -4 -22 -53 -33 -108 -11 -55 -29 -125 -39 -155 -11
-30 -27 -73 -35 -96 -42 -114 45 -87 122 39 14 22 41 45 70 60 43 21 62 23
241 26 209 3 240 -2 260 -44 8 -18 11 -215 11 -682 0 -624 -1 -659 -19 -699
-24 -53 -85 -97 -154 -113 -96 -22 -117 -31 -117 -50 0 -10 8 -21 18 -23 31
-8 757 -2 770 6 31 21 0 42 -92 64 -79 18 -139 54 -168 100 l-23 38 0 682 c0
641 1 683 18 700 16 16 42 18 237 21 178 3 230 0 274 -12 73 -21 109 -59 125
-129 6 -30 18 -63 26 -73 15 -18 16 -18 33 3 14 16 20 45 25 110 3 48 15 132
27 187 34 154 14 181 -75 102 -101 -87 -47 -81 -699 -84 -636 -3 -670 -1 -708
48 -13 17 -33 43 -46 60 -25 32 -30 34 -49 22z"/>
<path d="M16893 3992 c-7 -4 -22 -53 -33 -108 -11 -55 -29 -125 -39 -155 -11
-30 -27 -73 -35 -96 -42 -114 45 -87 122 39 14 22 41 45 70 60 43 21 62 23
241 26 209 3 240 -2 260 -44 8 -18 11 -215 11 -682 0 -624 -1 -659 -19 -699
-24 -53 -85 -97 -154 -113 -96 -22 -117 -31 -117 -50 0 -10 8 -21 18 -23 31
-8 757 -2 770 6 31 21 0 42 -92 64 -79 18 -139 54 -168 100 l-23 38 0 682 c0
641 1 683 18 700 16 16 42 18 237 21 178 3 230 0 274 -12 73 -21 109 -59 125
-129 6 -30 18 -63 26 -73 15 -18 16 -18 33 3 14 16 20 45 25 110 3 48 15 132
27 187 34 154 14 181 -75 102 -101 -87 -47 -81 -699 -84 -636 -3 -670 -1 -708
48 -13 17 -33 43 -46 60 -25 32 -30 34 -49 22z"/>
<path d="M14827 3921 c-10 -17 -37 -37 -71 -52 -49 -22 -54 -27 -59 -61 -9
-69 -287 -790 -472 -1227 -109 -256 -131 -281 -336 -371 -36 -16 -51 -53 -26
-63 22 -8 674 5 689 14 24 16 -7 43 -79 70 -128 47 -161 87 -150 182 7 58 91
329 113 365 14 22 15 22 302 22 158 0 293 -4 300 -8 14 -10 85 -250 107 -364
24 -125 -3 -162 -141 -194 -76 -17 -94 -28 -94 -55 0 -26 18 -27 422 -33 381
-5 395 -4 363 41 -10 14 -39 27 -84 38 -130 32 -191 90 -251 239 -22 57 -437
1293 -487 1455 -11 35 -26 35 -46 2z m60 -636 c100 -303 116 -357 103 -365
-21 -14 -476 -8 -490 6 -8 8 25 107 121 363 72 193 135 351 139 351 5 0 62
-160 127 -355z"/>
<path d="M8580 3905 c-207 -46 -374 -211 -388 -382 -16 -200 75 -338 351 -534
179 -127 302 -250 352 -351 36 -74 37 -80 33 -160 -10 -183 -115 -282 -298
-282 -146 0 -248 46 -311 139 -15 22 -42 82 -59 133 -18 51 -41 103 -51 115
l-18 22 -23 -23 c-21 -21 -23 -30 -22 -125 2 -106 21 -200 49 -243 34 -53 168
-92 340 -101 201 -9 326 21 438 105 126 96 183 223 175 387 -4 81 -10 104 -40
167 -73 152 -166 245 -419 418 -260 178 -331 290 -283 449 18 61 84 135 147
164 82 39 216 39 291 0 82 -42 136 -113 152 -197 8 -48 44 -86 78 -86 36 0 42
32 28 161 -11 110 -31 176 -54 183 -147 43 -182 49 -288 52 -76 3 -137 -1
-180 -11z"/>
<path d="M11625 3910 c-324 -41 -614 -243 -753 -525 -49 -99 -70 -169 -81
-279 -42 -415 205 -817 582 -947 127 -44 247 -55 429 -41 153 11 253 31 360
72 52 19 59 26 82 73 44 91 83 286 59 300 -20 13 -70 -33 -108 -98 -117 -201
-320 -300 -547 -267 -217 31 -426 215 -519 457 -62 160 -72 215 -73 400 -1
149 2 180 22 249 70 243 250 444 456 509 88 27 256 29 353 4 173 -46 287 -156
308 -298 10 -65 39 -111 68 -107 22 3 22 5 20 163 -1 96 -7 180 -15 209 l-13
49 -80 17 c-44 10 -115 27 -157 38 -90 25 -287 35 -393 22z"/>
<path d="M13095 3910 c-103 -16 -249 -69 -336 -122 -209 -129 -345 -323 -395
-568 -22 -103 -24 -308 -5 -395 83 -380 411 -669 798 -705 279 -25 543 67 719
251 163 172 242 370 252 630 5 156 -10 256 -59 377 -72 180 -223 351 -386 435
-137 71 -242 98 -398 102 -71 2 -157 0 -190 -5z m316 -114 c165 -51 287 -165
374 -347 90 -191 117 -469 69 -724 -20 -104 -56 -193 -111 -277 -101 -155
-249 -228 -458 -229 -173 0 -299 54 -430 187 -121 122 -199 271 -237 452 -29
139 -21 349 17 477 77 261 252 432 485 476 62 11 235 3 291 -15z"/>
<path d="M16170 3905 c-207 -46 -374 -211 -388 -382 -16 -200 75 -338 351
-534 179 -127 302 -250 352 -351 36 -74 37 -80 33 -160 -10 -183 -115 -282
-298 -282 -146 0 -248 46 -311 139 -15 22 -42 82 -59 133 -18 51 -41 103 -51
115 l-18 22 -23 -23 c-21 -21 -23 -30 -22 -125 2 -106 21 -200 49 -243 34 -53
168 -92 340 -101 201 -9 326 21 438 105 126 96 183 223 175 387 -4 81 -10 104
-40 167 -73 152 -166 245 -419 418 -260 178 -331 290 -283 449 18 61 84 135
147 164 82 39 216 39 291 0 82 -42 136 -113 152 -197 8 -48 44 -86 78 -86 36
0 42 32 28 161 -11 110 -31 176 -54 183 -147 43 -182 49 -288 52 -76 3 -137
-1 -180 -11z"/>
<path d="M4373 3875 c-26 -19 -4 -39 75 -69 80 -31 133 -72 166 -129 14 -23
160 -382 325 -797 166 -415 306 -759 311 -764 20 -20 40 22 135 278 116 314
237 611 249 611 5 0 64 -143 132 -318 158 -407 225 -561 245 -565 25 -5 56 77
294 785 119 351 224 660 235 688 68 166 179 243 313 214 65 -13 109 -39 141
-82 21 -28 21 -37 24 -683 2 -462 -1 -667 -9 -697 -17 -65 -63 -101 -164 -128
-97 -25 -126 -41 -109 -59 17 -17 1260 -22 1274 -5 16 19 50 187 53 258 2 61
1 62 -25 65 -24 3 -30 -3 -58 -58 -41 -82 -92 -135 -148 -157 -40 -15 -79 -18
-272 -18 -245 0 -264 3 -304 58 -20 27 -21 42 -24 335 -2 169 0 317 3 329 8
34 67 45 226 41 164 -4 178 -10 225 -108 28 -57 65 -92 78 -72 2 4 6 94 8 200
2 163 1 194 -12 202 -15 10 -49 -21 -94 -85 -32 -47 -69 -55 -245 -55 -132 0
-162 3 -175 16 -14 13 -16 56 -16 320 0 190 4 313 10 325 24 43 56 49 287 49
193 0 223 -3 260 -19 48 -22 81 -68 113 -158 19 -53 26 -63 46 -63 16 0 25 7
29 23 8 31 -34 290 -48 299 -19 12 -1647 2 -1659 -10 -19 -19 -1 -40 51 -57
70 -23 101 -62 101 -127 0 -53 -80 -334 -220 -778 -97 -306 -129 -386 -144
-369 -7 8 -75 174 -150 371 -157 405 -150 356 -79 538 91 232 158 328 243 349
76 19 112 35 124 54 8 13 8 20 -3 27 -8 5 -106 8 -218 6 -228 -2 -251 -8 -198
-52 17 -14 40 -33 53 -44 12 -10 22 -29 22 -42 0 -57 -102 -336 -129 -353 -24
-14 -159 322 -147 368 3 12 26 34 51 49 30 18 45 34 45 48 0 11 -6 21 -12 21
-68 7 -568 5 -579 -2 -10 -6 -11 -13 -3 -26 13 -21 25 -28 95 -53 74 -27 161
-90 198 -144 40 -58 211 -488 211 -529 -1 -43 -225 -592 -242 -592 -18 0 -329
721 -437 1013 -65 178 -56 240 41 271 46 15 66 37 49 54 -18 18 -594 20 -618
2z"/>
<path d="M12537 2018 c-8 -13 -20 -57 -26 -98 -7 -41 -26 -113 -42 -160 -54
-151 -54 -149 -41 -162 22 -22 64 5 112 72 35 50 58 71 100 93 53 27 56 27
244 27 105 0 201 -3 214 -6 52 -14 52 -10 52 -731 0 -635 -1 -670 -19 -710
-26 -55 -83 -92 -183 -118 -82 -20 -118 -46 -90 -64 7 -4 188 -8 403 -8 312 0
392 3 400 14 19 22 -7 40 -83 58 -91 21 -140 46 -175 92 l-28 36 -3 697 c-2
592 0 699 12 715 13 19 29 20 244 23 142 2 245 -1 269 -7 66 -18 106 -51 122
-101 31 -101 38 -115 54 -118 26 -5 43 49 51 158 3 52 12 122 21 155 8 33 14
81 15 108 0 40 -3 47 -20 47 -10 0 -43 -21 -71 -46 -100 -89 -55 -84 -734 -84
-389 0 -613 4 -638 11 -26 7 -47 23 -68 52 -62 87 -70 92 -92 55z"/>
<path d="M11851 1959 c-13 -17 -47 -42 -76 -55 -49 -23 -53 -27 -58 -67 -13
-87 -454 -1213 -549 -1402 -48 -94 -123 -159 -222 -191 -28 -9 -59 -23 -68
-32 -22 -19 -23 -48 -3 -56 23 -8 682 6 697 15 24 16 -7 43 -79 70 -126 46
-160 88 -150 185 6 62 88 333 113 372 14 22 15 22 302 22 215 0 292 -3 304
-12 27 -21 118 -356 118 -436 0 -35 -6 -49 -29 -72 -26 -26 -52 -36 -170 -66
-46 -12 -63 -40 -37 -60 16 -11 60 -14 206 -14 103 0 275 -3 383 -7 183 -6
197 -5 203 12 12 31 -11 49 -87 71 -41 11 -88 28 -105 37 -45 23 -103 92 -130
154 -31 70 -312 898 -429 1263 -49 151 -93 281 -100 288 -9 10 -16 6 -34 -19z
m58 -641 c61 -185 111 -346 111 -357 0 -21 -3 -21 -249 -21 -144 0 -252 4
-256 9 -3 5 49 155 115 332 148 394 148 395 159 383 5 -5 59 -160 120 -346z"/>
<path d="M15677 1950 c-152 -17 -299 -70 -414 -148 -186 -126 -299 -289 -359
-517 -36 -135 -39 -357 -6 -476 90 -331 350 -582 688 -666 104 -25 313 -23
429 6 116 28 273 105 352 173 345 293 428 857 182 1234 -127 194 -308 322
-532 374 -101 23 -237 31 -340 20z m244 -114 c329 -70 530 -431 505 -906 -13
-254 -74 -421 -200 -546 -78 -77 -144 -114 -248 -139 -75 -17 -206 -19 -280
-4 -179 37 -360 195 -463 404 -133 271 -134 613 -2 870 48 94 171 224 254 268
116 62 292 83 434 53z"/>
<path d="M10100 1943 c-282 -55 -504 -189 -657 -396 -196 -267 -222 -620 -68
-932 90 -183 232 -325 409 -410 120 -57 196 -76 342 -82 206 -9 433 24 560 81
42 19 54 31 73 71 24 52 54 161 65 235 14 106 -40 88 -125 -41 -102 -154 -225
-238 -383 -260 -218 -30 -412 56 -566 250 -130 163 -202 390 -202 636 0 247
84 451 247 604 136 126 278 179 459 168 255 -15 421 -132 451 -317 9 -57 29
-96 57 -111 48 -26 58 45 38 252 -6 57 -15 120 -20 140 -10 35 -13 37 -73 48
-34 7 -100 24 -147 38 -75 23 -106 26 -260 28 -96 2 -186 1 -200 -2z"/>
<path d="M6457 1934 c-3 -4 -151 -8 -327 -9 -225 -2 -325 -6 -333 -14 -22 -22
8 -45 84 -67 98 -27 135 -48 156 -87 17 -30 18 -83 21 -700 2 -468 -1 -680 -9
-709 -16 -62 -55 -92 -155 -119 -82 -23 -119 -47 -100 -66 6 -7 493 -15 941
-16 406 -1 761 276 887 693 25 83 36 307 19 406 -64 380 -325 615 -753 678
-104 16 -418 23 -431 10z m388 -104 c258 -81 454 -288 527 -558 17 -63 21
-106 21 -232 -1 -134 -4 -168 -26 -252 -59 -225 -196 -399 -382 -488 -93 -45
-173 -60 -315 -60 -203 0 -314 38 -365 124 l-25 43 0 678 0 677 38 38 c32 33
46 39 97 45 33 3 67 8 75 10 8 2 76 2 150 0 104 -2 151 -8 205 -25z"/>
<path d="M16483 1934 c-21 -9 -15 -51 10 -66 12 -9 51 -26 86 -39 100 -36 172
-89 207 -151 l29 -53 -2 -295 c-2 -315 -16 -626 -37 -806 -21 -180 -74 -272
-174 -300 -68 -19 -91 -37 -74 -57 17 -20 626 -21 643 -1 18 22 -5 41 -64 54
-62 15 -115 41 -139 67 -46 50 -48 73 -47 435 1 189 4 442 8 563 6 215 6 220
27 223 18 3 98 -91 441 -510 231 -282 472 -578 536 -658 111 -138 171 -194
237 -218 33 -12 68 2 75 30 3 13 6 372 7 798 3 885 -2 831 86 868 26 11 64 23
85 26 57 11 87 27 87 48 0 10 -10 22 -22 27 -13 4 -148 5 -301 2 -223 -5 -279
-9 -286 -20 -19 -30 0 -44 97 -70 47 -13 106 -60 128 -102 12 -23 14 -113 13
-556 -1 -290 -4 -553 -7 -583 -9 -75 -26 -75 -95 0 -51 56 -565 700 -909 1138
-76 97 -148 182 -161 188 -23 12 -461 28 -484 18z"/>
<path d="M4402 1922 c-29 -4 -40 -29 -21 -47 8 -7 50 -23 94 -35 95 -25 140
-57 155 -108 8 -25 10 -249 8 -714 -3 -669 -3 -677 -24 -705 -30 -40 -87 -69
-170 -88 -75 -17 -106 -37 -86 -57 7 -7 202 -12 646 -14 527 -2 637 0 646 11
14 17 60 236 60 287 0 41 -11 53 -43 44 -15 -3 -34 -28 -57 -73 -19 -37 -51
-84 -70 -103 -57 -57 -101 -65 -355 -65 -203 0 -223 2 -255 20 -68 40 -70 52
-70 406 0 282 2 318 17 330 12 11 57 14 189 14 170 0 173 0 199 -25 15 -14 41
-53 57 -87 29 -61 59 -86 79 -66 5 5 8 97 7 209 -3 196 -3 199 -25 202 -17 3
-29 -9 -58 -53 -54 -85 -82 -95 -276 -95 -139 0 -158 2 -172 18 -15 16 -17 55
-17 335 l0 316 33 25 34 26 229 0 c203 0 234 -3 271 -19 45 -21 77 -67 108
-156 10 -27 23 -56 30 -63 15 -17 44 -5 51 22 6 26 -34 287 -46 300 -8 8
-1114 15 -1168 8z"/>
<path d="M7540 1918 c-48 -18 -13 -59 70 -83 41 -12 76 -42 96 -82 18 -35 19
-77 25 -538 5 -406 9 -512 22 -566 78 -323 256 -479 593 -519 393 -48 701 153
795 519 20 78 21 96 48 824 8 222 10 240 33 285 25 49 49 65 140 97 47 16 67
40 48 59 -13 13 -527 8 -553 -6 -34 -18 -20 -31 78 -75 50 -22 80 -74 94 -162
17 -108 26 -760 12 -876 -32 -249 -127 -412 -289 -492 -64 -32 -83 -37 -172
-41 -123 -6 -202 9 -297 54 -96 46 -179 116 -236 200 -99 146 -109 220 -105
777 3 400 4 413 25 452 27 52 58 79 113 103 56 24 76 45 58 60 -15 12 -568 21
-598 10z"/>
<path d="M14292 1922 c-29 -4 -40 -29 -21 -47 8 -7 50 -23 93 -34 43 -12 92
-31 109 -43 58 -42 57 -26 57 -758 0 -648 -1 -672 -20 -709 -25 -51 -69 -76
-171 -102 -93 -23 -120 -39 -100 -62 9 -12 76 -14 405 -13 217 0 398 5 402 9
19 19 -17 43 -98 64 -106 27 -153 55 -178 104 -19 37 -20 63 -20 709 0 640 1
673 19 708 24 47 62 69 163 96 83 21 114 44 91 67 -8 8 -113 12 -360 13 -191
0 -358 0 -371 -2z"/>
</g>
</svg>
